<svg version="1.1" id="Layer_1" xmlns="http://www.w3.org/2000/svg" xmlns:xlink="http://www.w3.org/1999/xlink" x="0px" y="0px"
	 width="100%" viewBox="0 0 621 168" enable-background="new 0 0 621 168" xml:space="preserve">
<path fill="#FEFEFE" opacity="1.000000" stroke="none" 
	d="
M408.000000,169.000000 
	C272.042938,169.000000 136.585846,169.000000 1.064389,169.000000 
	C1.064389,113.060730 1.064389,57.121365 1.064389,1.091000 
	C207.999985,1.091000 415.000000,1.091000 621.966064,1.091000 
	C621.966064,57.080750 621.966064,113.040390 621.966064,169.000000 
	C550.788086,169.000000 479.644043,169.000000 408.000000,169.000000 
M301.701447,132.424225 
	C301.045227,132.346176 300.388977,132.268112 299.732758,132.190063 
	C299.707275,132.390854 299.681824,132.591660 299.656342,132.792450 
	C300.393066,132.910126 301.129791,133.027817 302.238037,133.628036 
	C302.993134,133.905563 303.748230,134.183075 304.503326,134.460587 
	C304.588684,134.175674 304.674042,133.890747 304.759399,133.605835 
	C303.870483,133.362152 302.981567,133.118469 301.701447,132.424225 
M597.060791,69.046104 
	C597.224792,69.192558 597.388855,69.339012 597.323059,70.191254 
	C598.311707,72.009651 598.896118,74.505989 600.425293,75.417732 
	C601.518738,76.069702 604.824463,75.109833 605.453003,73.951843 
	C606.398743,72.209297 606.568848,69.380432 605.815735,67.520805 
	C604.285828,63.743145 598.540344,62.825554 594.517883,65.405106 
	C592.914307,66.433411 591.594910,67.904686 589.971802,69.327026 
	C589.740356,67.475739 589.541809,65.887466 589.318787,64.103401 
	C585.651001,64.789169 582.218140,65.320198 578.853821,66.134445 
	C577.962891,66.350090 577.282837,67.437515 576.505981,68.124626 
	C577.219788,68.817108 577.928833,69.514503 578.648438,70.200897 
	C579.603027,71.111588 581.375854,71.993446 581.398987,72.922592 
	C581.612976,81.498360 581.525208,90.081657 581.525208,98.580856 
	C576.621704,99.215363 576.621704,99.215363 577.080078,102.834000 
	C583.338684,102.834000 589.607605,102.834000 596.204224,102.834000 
	C596.097534,101.450775 596.006836,100.274559 595.918030,99.123070 
	C593.757690,99.006897 591.987671,98.911705 589.929688,98.801033 
	C589.929688,91.077911 589.745178,83.624580 590.003845,76.186661 
	C590.143250,72.177368 592.520630,69.490799 597.060791,69.046104 
M425.060791,69.046066 
	C425.224823,69.192520 425.388824,69.338974 425.323120,70.191231 
	C426.311737,72.009628 426.896118,74.505981 428.425323,75.417770 
	C429.518768,76.069725 432.824463,75.109856 433.452972,73.951859 
	C434.398743,72.209312 434.568909,69.380417 433.815796,67.520798 
	C432.285950,63.743195 426.540314,62.825603 422.517883,65.405083 
	C420.914337,66.433388 419.594879,67.904648 417.972168,69.326683 
	C417.740631,67.475693 417.541962,65.887413 417.318787,64.103378 
	C413.651031,64.789154 410.218201,65.320206 406.853912,66.134460 
	C405.962921,66.350105 405.282928,67.437485 404.506042,68.124603 
	C405.219788,68.817101 405.928833,69.514481 406.648376,70.200897 
	C407.603058,71.111557 409.375732,71.993446 409.398926,72.922600 
	C409.612885,81.498367 409.525177,90.081657 409.525177,98.580864 
	C404.621674,99.215340 404.621674,99.215340 405.080017,102.834015 
	C411.338654,102.834015 417.607544,102.834015 424.204071,102.834015 
	C424.097443,101.450836 424.006775,100.274628 423.917999,99.122978 
	C421.757782,99.006905 419.987732,98.911797 417.929749,98.801216 
	C417.929749,91.077736 417.745239,83.624550 418.003845,76.186775 
	C418.143250,72.177444 420.520569,69.490891 425.060791,69.046066 
M55.945412,16.413143 
	C54.812683,17.107790 53.653786,17.763422 52.551128,18.502911 
	C34.742790,30.445923 29.669615,54.697948 41.189747,72.768166 
	C52.827690,91.023178 76.613800,96.755379 95.089531,85.757446 
	C113.426666,74.842049 119.948708,51.517731 109.926285,32.697956 
	C99.775558,13.637261 76.831024,6.476914 55.945412,16.413143 
M521.639954,102.084648 
	C522.810242,101.432686 523.980469,100.780724 525.150757,100.128784 
	C523.622192,98.794106 522.093628,97.459427 519.908447,95.551407 
	C519.908447,80.027283 519.908447,63.628933 519.908447,47.095516 
	C516.071289,47.809048 512.621094,48.341618 509.238251,49.154636 
	C508.368439,49.363689 507.710968,50.456188 506.955933,51.142845 
	C507.647705,51.829887 508.249268,52.662476 509.056641,53.163074 
	C509.865570,53.664673 510.880005,53.834866 511.741089,54.128723 
	C511.741089,59.377209 511.741089,64.451744 511.741089,69.761292 
	C501.635162,58.527145 488.969788,65.545219 486.403961,75.292107 
	C484.707184,81.737679 484.629272,88.138062 487.069885,94.399414 
	C489.734436,101.235245 496.186157,105.346992 502.807648,103.736633 
	C506.084625,102.939659 508.967621,100.522636 511.857513,98.932861 
	C511.954224,100.285713 512.081299,102.063644 512.219482,103.996864 
	C515.306274,103.357613 518.059326,102.787483 521.639954,102.084648 
M188.862305,103.742805 
	C198.320389,101.141853 202.770523,96.068932 202.700348,87.968178 
	C202.635971,80.536865 198.130478,75.540588 189.101089,72.953880 
	C186.546814,72.222122 183.928040,71.703651 181.398911,70.898636 
	C177.021912,69.505424 174.064255,66.897614 174.632370,61.819180 
	C175.113632,57.517040 177.862595,55.488560 181.935440,54.915672 
	C188.389969,54.007771 193.233337,55.648376 194.511749,59.509140 
	C195.157791,61.460159 195.122269,63.636871 195.387390,65.654205 
	C197.670746,65.654205 199.592819,65.654205 201.640991,65.654205 
	C201.640991,60.659351 201.640991,55.915680 201.640991,51.089401 
	C199.380585,51.089401 197.398331,51.089401 195.360138,51.089401 
	C195.121887,52.202282 194.906738,53.207245 194.660461,54.357609 
	C188.288895,48.557388 181.423218,49.033520 174.508820,52.142254 
	C169.123520,54.563515 166.461929,60.006264 167.103256,66.187820 
	C167.904953,73.915298 173.037125,77.712402 179.808304,79.888283 
	C183.122299,80.953217 186.560608,81.642784 189.847336,82.778198 
	C193.886810,84.173660 195.371445,87.301521 194.973999,91.435539 
	C194.567474,95.663834 192.054779,98.021400 188.093811,98.919785 
	C178.805756,101.026421 174.658829,98.087685 172.462601,88.020004 
	C170.490204,88.020004 168.549591,88.020004 166.504349,88.020004 
	C166.504349,93.060547 166.504349,97.825539 166.504349,102.770294 
	C168.774231,102.770294 170.828949,102.770294 172.852142,102.770294 
	C173.035538,101.510872 173.182663,100.500465 173.403091,98.986641 
	C177.693481,103.799240 182.705231,104.327248 188.862305,103.742805 
M51.484814,103.945686 
	C52.621830,102.081078 53.758850,100.216476 54.981007,98.212257 
	C60.970093,104.219101 65.443367,108.677658 69.884712,113.167801 
	C74.602257,117.937202 74.597893,117.959595 79.223190,113.554817 
	C87.544868,105.629883 95.839371,97.676353 104.174294,89.765404 
	C111.245827,83.053574 118.358376,76.384956 125.787117,69.382050 
	C126.197784,71.633209 126.479912,73.179756 126.734398,74.574783 
	C128.297302,74.574783 129.533127,74.574783 131.581848,74.574783 
	C130.984421,69.895042 131.892471,64.061325 129.444855,61.687202 
	C127.250999,59.559227 121.363548,61.239204 117.225189,61.239204 
	C117.225189,62.643410 117.225189,63.920597 117.225189,65.262199 
	C118.846542,65.486313 120.243217,65.679367 122.283371,65.961372 
	C106.137070,81.330025 90.444122,96.267159 74.896545,111.065926 
	C69.565109,105.835266 64.548851,101.188683 59.874634,96.220306 
	C57.255711,93.436554 55.264370,92.974693 52.572685,96.010986 
	C49.926369,98.996094 46.943306,101.682945 44.104099,104.496719 
	C35.848560,112.678291 27.591059,120.857880 19.217424,129.154068 
	C20.529194,130.553223 21.412390,131.495270 22.989031,133.176941 
	C32.414059,123.501137 41.695534,113.972702 51.484814,103.945686 
M379.483307,98.922249 
	C379.255524,97.503090 378.836609,96.084816 378.830078,94.664650 
	C378.776611,83.019592 378.788330,71.374161 378.815002,59.728912 
	C378.818237,58.319057 379.028198,56.909683 379.133148,55.613480 
	C383.040497,55.613480 386.455353,55.613480 389.970154,55.613480 
	C390.101440,58.514095 390.219299,61.117329 390.338531,63.751373 
	C392.703308,63.751373 394.745209,63.751373 396.710266,63.751373 
	C396.710266,59.366779 396.710266,55.295185 396.710266,51.114014 
	C381.655518,51.114014 366.883331,51.114014 351.996552,51.114014 
	C351.996552,55.444080 351.996552,59.648483 351.996552,63.770523 
	C354.255310,63.770523 356.179352,63.770523 358.496033,63.770523 
	C358.496033,60.894241 358.496033,58.308887 358.496033,55.608696 
	C362.462830,55.608696 366.026611,55.608696 369.720825,55.608696 
	C369.720825,70.141914 369.720825,84.375854 369.720825,99.022064 
	C367.442749,99.022064 365.368347,99.022064 362.955841,99.022064 
	C363.125031,100.638130 363.247406,101.806999 363.354034,102.825333 
	C370.912201,102.825333 378.033752,102.825333 385.138916,102.825333 
	C385.403992,99.034241 385.403992,99.034241 379.483307,98.922249 
M309.283691,82.661118 
	C309.251038,80.167450 309.328278,77.666527 309.164124,75.181549 
	C308.754852,68.986153 305.351440,65.410820 298.897064,64.220863 
	C291.641968,62.883286 283.179291,65.682625 280.995850,70.147629 
	C280.850281,70.445328 280.599579,70.798462 280.656982,71.071312 
	C281.040497,72.894989 280.933441,75.402313 282.080963,76.324028 
	C283.264313,77.274490 286.030518,77.313866 287.464050,76.550194 
	C288.565308,75.963531 288.905182,73.543541 289.131531,71.877426 
	C289.257904,70.947342 288.461609,69.891907 288.071747,68.868454 
	C298.355103,66.309845 302.012146,70.148209 300.583374,81.542763 
	C295.968323,82.048927 291.293030,82.155678 286.815826,83.152336 
	C280.799255,84.491661 278.240875,88.785912 278.891907,95.099030 
	C279.438354,100.397980 283.176361,104.226517 289.113983,103.761566 
	C293.504852,103.417747 297.745422,101.154327 301.898468,99.796608 
	C302.544525,103.615395 306.184479,104.423416 310.580780,103.779205 
	C312.959930,103.430573 315.325134,102.816200 313.814087,99.320564 
	C312.383850,99.149536 310.966125,98.980011 309.667877,98.824768 
	C309.486603,98.195625 309.325226,97.893784 309.323547,97.591072 
	C309.298004,92.934883 309.293243,88.278587 309.283691,82.661118 
M451.426636,82.626595 
	C444.466553,84.299934 441.571808,86.961388 441.219177,92.438622 
	C440.916565,97.138794 442.513977,100.983498 447.128296,102.974838 
	C453.054260,105.532211 458.816284,103.924080 463.764252,98.429596 
	C466.160919,103.460999 468.650269,104.961960 473.477783,103.632599 
	C474.970306,103.221596 476.130157,101.602486 477.442322,100.536514 
	C477.168427,100.155136 476.894531,99.773758 476.620667,99.392387 
	C475.081665,99.173027 473.542664,98.953667 471.911011,98.721100 
	C471.911011,91.010788 472.036377,83.684395 471.873932,76.364388 
	C471.726929,69.739479 468.720154,66.134514 462.523254,64.554634 
	C455.411102,62.741402 446.497894,65.114021 443.843719,69.638809 
	C443.286194,70.589256 442.928772,71.813179 442.934418,72.908737 
	C442.951782,76.267006 445.105316,78.188850 448.047729,77.166374 
	C449.722687,76.584335 450.816986,73.863609 451.753632,71.905495 
	C452.040375,71.306068 450.936523,70.041443 450.458679,69.059242 
	C459.884064,65.657898 465.079559,70.817978 463.137390,81.743591 
	C459.529419,81.964584 455.893036,82.187317 451.426636,82.626595 
M554.509766,83.983330 
	C558.927002,83.983330 563.344238,83.983330 567.744690,83.983330 
	C567.638428,71.667122 562.235779,64.835335 552.555664,64.071808 
	C543.064697,63.323200 535.599731,69.272720 533.883789,78.953178 
	C531.750427,90.989189 536.452759,100.464417 545.909241,103.184273 
	C555.154663,105.843437 563.272583,102.099297 567.045105,92.485107 
	C565.176941,92.875465 563.569824,92.722672 562.795532,93.452942 
	C558.020630,97.956383 553.202393,99.348259 548.475586,97.258781 
	C543.958374,95.261978 542.110840,91.193832 542.641479,83.983330 
	C546.248596,83.983330 549.887085,83.983330 554.509766,83.983330 
M119.275482,96.999390 
	C120.022377,92.344612 118.018822,90.462898 113.412155,91.126427 
	C112.596397,91.243927 111.738403,91.230247 110.918335,91.128563 
	C106.618919,90.595421 105.049515,92.305023 105.112877,96.756004 
	C105.333290,112.240654 105.185028,127.730385 105.203613,143.218155 
	C105.216194,153.704910 104.555595,151.677612 113.953873,152.095917 
	C118.047630,152.278122 119.425049,151.118286 119.365570,146.866730 
	C119.137306,130.549469 119.274513,114.227104 119.275482,96.999390 
M247.161011,95.316666 
	C247.243011,97.333153 247.564102,99.298195 244.317490,99.135849 
	C243.468185,99.093384 242.524124,100.945732 240.829590,102.793823 
	C249.007904,102.793823 255.420105,102.793823 261.833008,102.793823 
	C261.790863,99.456444 261.790863,99.456444 255.662338,98.395912 
	C255.662338,91.319397 255.615051,84.196602 255.678848,77.074806 
	C255.722015,72.256424 258.389160,69.538490 263.197693,68.220741 
	C263.133606,69.134453 263.132965,69.760490 263.039642,70.372398 
	C262.487305,73.994255 264.295258,75.852806 267.691254,75.854141 
	C271.278381,75.855545 272.524414,73.319527 272.424683,70.128983 
	C272.272186,65.250458 266.488983,62.365990 261.460449,64.824539 
	C259.395203,65.834282 257.699829,67.600525 255.526291,69.259132 
	C255.337799,67.356621 255.184113,65.805466 255.012833,64.076576 
	C251.226822,64.792725 247.797913,65.328735 244.439774,66.153114 
	C243.564453,66.368004 242.909760,67.481667 242.153748,68.182549 
	C242.887009,68.858147 243.543488,69.657562 244.375656,70.173676 
	C245.168716,70.665550 246.145065,70.861931 247.161057,71.232010 
	C247.161057,79.086517 247.161057,86.720291 247.161011,95.316666 
M233.968094,65.064323 
	C231.212555,65.064323 228.457001,65.064323 225.367035,65.064323 
	C225.367035,61.253956 225.367035,58.148117 225.367035,55.218967 
	C221.783829,53.823925 220.951141,55.758625 219.773514,58.334175 
	C218.652252,60.786446 216.434357,62.752949 214.621567,64.866966 
	C213.677521,65.967850 212.567322,66.926262 210.910721,68.563057 
	C213.960159,69.179657 215.480255,69.487015 217.112457,69.817047 
	C217.112457,78.944046 217.079559,87.749115 217.129059,96.553734 
	C217.148224,99.964935 218.252594,103.475479 221.960983,103.596352 
	C226.186966,103.734077 230.464203,102.443832 234.695145,101.646660 
	C234.834869,101.620331 234.712860,100.204865 234.712860,98.911880 
	C231.479874,98.911880 228.574799,98.911880 225.852295,98.911880 
	C225.852295,88.783546 225.852295,79.184219 225.852295,69.243340 
	C228.925827,69.243340 231.715210,69.243340 234.756348,69.243340 
	C234.756348,67.756775 234.756348,66.617546 233.968094,65.064323 
M334.870087,60.656960 
	C334.870087,58.862495 334.870087,57.068035 334.870087,55.394394 
	C331.549957,53.849594 329.904907,55.071800 329.207489,58.039902 
	C328.229706,62.201359 326.470917,65.548149 321.085815,65.262863 
	C320.973694,65.791817 320.861542,66.320778 320.749390,66.849731 
	C322.470581,68.020096 324.191772,69.190460 326.413208,70.700981 
	C326.413208,78.858803 326.106750,87.690239 326.610626,96.475197 
	C326.751373,98.928719 329.025177,103.016083 330.771332,103.271484 
	C334.962677,103.884537 339.424835,102.693092 343.755798,102.075851 
	C343.886047,102.057297 343.772278,100.326721 343.772278,99.041412 
	C340.820068,99.041412 338.051727,99.041412 335.143066,99.041412 
	C335.143066,88.961670 335.143066,79.237762 335.143066,69.171410 
	C338.192902,69.171410 340.970825,69.171410 343.726685,69.171410 
	C343.726685,67.603195 343.726685,66.383308 343.726685,64.971687 
	C341.613525,64.971687 339.767853,64.770889 337.983917,65.017128 
	C335.054260,65.421494 334.587616,63.904728 334.870087,60.656960 
M95.343849,152.019211 
	C99.442978,152.666000 100.920570,151.029633 100.798538,146.810791 
	C100.533897,137.661530 100.718399,128.499268 100.718903,119.342331 
	C100.719421,109.766823 100.718246,109.946434 91.315849,109.894279 
	C87.441910,109.872795 86.493187,111.391930 86.542763,114.927208 
	C86.694458,125.746918 86.580399,136.570175 86.618706,147.391876 
	C86.623764,148.822083 86.913094,150.251266 87.108070,152.019211 
	C89.810402,152.019211 92.118439,152.019211 95.343849,152.019211 
M63.122528,147.299194 
	C63.122776,138.476456 63.123150,129.653717 63.123238,120.830971 
	C63.123322,111.931664 63.122635,112.097694 54.108444,112.067146 
	C50.125854,112.053650 48.893661,113.540276 48.993114,117.387863 
	C49.208118,125.705650 48.976398,134.033875 49.079819,142.355911 
	C49.218876,153.545822 47.123508,151.797195 59.416729,152.059952 
	C62.301395,152.121613 63.388786,150.983719 63.122528,147.299194 
M74.514984,123.971886 
	C67.889679,123.997070 67.888069,123.997070 67.883156,130.474258 
	C67.880119,134.473999 67.817596,138.475006 67.895554,142.473236 
	C68.112434,153.596451 65.903656,151.753815 77.791420,152.085602 
	C81.216728,152.181183 82.100502,150.761688 82.015350,147.649948 
	C81.860397,141.987900 81.974716,136.318558 81.971458,130.652267 
	C81.967636,124.004547 81.965233,124.004547 74.514984,123.971886 
M33.843658,152.017136 
	C37.137405,152.017136 40.431149,152.017136 44.431469,152.017136 
	C44.431469,147.061905 44.432484,142.608612 44.431263,138.155319 
	C44.428509,128.122589 44.432751,128.211395 34.183376,128.752869 
	C31.428425,128.898422 30.264309,129.898712 30.295475,132.615570 
	C30.356529,137.938278 30.162329,143.270142 30.437372,148.579361 
	C30.498716,149.763489 32.062176,150.869781 33.843658,152.017136 
M26.486349,81.877586 
	C27.259588,80.496643 28.032829,79.115692 28.971619,77.439087 
	C29.924341,77.297867 31.323574,77.090462 32.914684,76.854607 
	C32.784447,75.253265 32.683430,74.011185 32.574413,72.670715 
	C30.995630,72.492538 29.713636,72.347855 28.332048,72.191933 
	C28.141642,70.683876 27.965500,69.288818 27.769037,67.732811 
	C26.117809,67.856186 24.839268,67.951721 23.560724,68.047256 
	C23.816277,68.399681 24.071829,68.752113 24.327383,69.104538 
	C22.764593,70.602631 21.201803,72.100716 18.906862,74.300644 
	C18.906862,74.260490 18.906862,75.541199 18.906862,76.947678 
	C20.324577,77.138321 21.607365,77.310822 21.532679,77.300774 
	C23.403156,79.393585 24.515665,80.638329 26.486349,81.877586 
M129.452362,34.978786 
	C128.412109,34.329887 127.286530,33.783379 126.353470,33.005840 
	C125.219299,32.060707 124.247383,30.920862 122.421127,29.070940 
	C121.842873,32.089878 121.579124,33.466839 121.328697,34.774258 
	C119.795303,34.938183 118.520416,35.074474 116.989555,35.238129 
	C117.070374,36.826256 117.141266,38.219269 117.213890,39.646343 
	C118.816444,39.829224 120.081810,39.973629 121.326714,40.115696 
	C121.646011,41.695057 121.923347,43.066849 122.560158,46.216736 
	C124.798668,43.765724 126.106041,42.334244 127.413414,40.902763 
	C127.183350,40.664570 126.953285,40.426376 126.723213,40.188187 
	C128.120071,39.953098 129.516922,39.718010 131.291458,39.419357 
	C130.934189,37.769447 130.637741,36.400444 129.452362,34.978786 
M344.545380,132.668472 
	C342.430450,132.570068 340.315552,132.471664 338.154144,132.371094 
	C335.833099,137.061462 336.219177,138.494614 340.703583,140.844620 
	C339.957855,139.381180 339.284210,138.059204 338.379547,136.283859 
	C340.363007,136.191147 341.931885,136.458450 343.171692,135.939545 
	C343.991577,135.596390 344.339172,134.124817 344.545380,132.668472 
M257.706665,134.826416 
	C256.974518,136.629059 256.242371,138.431702 255.510208,140.234344 
	C255.827728,140.505112 256.145233,140.775879 256.462769,141.046646 
	C257.619415,139.587570 259.759247,138.076950 259.686096,136.682358 
	C259.592773,134.902756 258.060913,132.653793 256.485718,131.677475 
	C255.327042,130.959351 253.103592,131.959198 251.354645,132.193481 
	C251.502853,132.517044 251.651062,132.840607 251.799255,133.164169 
	C253.618073,133.531158 255.436874,133.898163 257.706665,134.826416 
M399.375366,132.567764 
	C399.577759,132.951584 399.712738,133.605469 399.993439,133.675552 
	C401.876312,134.145599 403.790131,134.491455 405.693939,134.877579 
	C404.964722,136.658737 404.235504,138.439911 403.506287,140.221085 
	C405.196503,140.043701 407.052643,139.216125 407.234253,138.112869 
	C407.544800,136.226730 407.453278,133.086655 406.358612,132.431488 
	C404.659454,131.414551 401.976898,132.040710 399.375366,132.567764 
M491.768311,130.837494 
	C491.367767,129.945892 490.967255,129.054291 490.566711,128.162674 
	C490.195435,128.200470 489.824158,128.238266 489.452881,128.276062 
	C489.452881,132.107834 489.452881,135.939590 489.452881,139.771362 
	C489.799103,139.765839 490.145325,139.760315 490.491516,139.754807 
	C491.173096,136.817535 491.854645,133.880264 491.768311,130.837494 
M501.243652,133.524017 
	C503.022156,133.524017 504.800659,133.524017 506.579163,133.524017 
	C506.559448,132.907333 506.539734,132.290665 506.519989,131.673981 
	C504.206940,131.935638 501.893860,132.197281 499.580780,132.458923 
	C499.941742,132.926361 500.302704,133.393784 501.243652,133.524017 
M308.962311,136.495132 
	C309.742493,137.207001 310.522644,137.918884 311.302856,138.630768 
	C311.467255,137.397659 311.631653,136.164566 311.796021,134.931458 
	C310.865051,135.188019 309.934113,135.444580 308.962311,136.495132 
M251.729813,138.290634 
	C251.811829,138.795349 251.893829,139.300079 251.975830,139.804810 
	C252.413300,139.731903 252.850784,139.658997 253.288254,139.586090 
	C252.966339,139.131104 252.644440,138.676102 251.729813,138.290634 
M399.729828,138.290619 
	C399.811829,138.795334 399.893829,139.300064 399.975861,139.804779 
	C400.413330,139.731888 400.850800,139.658997 401.288269,139.586105 
	C400.966370,139.131104 400.644440,138.676102 399.729828,138.290619 
M310.547394,132.436752 
	C310.932190,132.413467 311.317017,132.390182 311.701813,132.366898 
	C311.621521,132.090942 311.541199,131.815002 311.460907,131.539047 
	C311.196381,131.685577 310.931854,131.832108 310.547394,132.436752 
z"/>
<path fill="#0D0D0D" opacity="1.000000" stroke="none" 
	d="
M56.269958,16.233871 
	C76.831024,6.476914 99.775558,13.637261 109.926285,32.697956 
	C119.948708,51.517731 113.426666,74.842049 95.089531,85.757446 
	C76.613800,96.755379 52.827690,91.023178 41.189747,72.768166 
	C29.669615,54.697948 34.742790,30.445923 52.551128,18.502911 
	C53.653786,17.763422 54.812683,17.107790 56.269958,16.233871 
M44.258343,33.913555 
	C40.700096,40.364925 39.452896,47.240814 39.924946,54.595146 
	C41.159927,73.835747 59.217140,88.507332 79.173798,86.302818 
	C98.137566,84.207985 112.605896,65.468681 109.593880,46.902905 
	C107.136551,31.756117 96.615952,19.991159 83.000877,17.164488 
	C67.395859,13.924679 53.859032,19.634859 44.258343,33.913555 
z"/>
<path fill="#060606" opacity="1.000000" stroke="none" 
	d="
M521.226196,102.151001 
	C518.059326,102.787483 515.306274,103.357613 512.219482,103.996864 
	C512.081299,102.063644 511.954224,100.285713 511.857513,98.932861 
	C508.967621,100.522636 506.084625,102.939659 502.807648,103.736633 
	C496.186157,105.346992 489.734436,101.235245 487.069885,94.399414 
	C484.629272,88.138062 484.707184,81.737679 486.403961,75.292107 
	C488.969788,65.545219 501.635162,58.527145 511.741089,69.761292 
	C511.741089,64.451744 511.741089,59.377209 511.741089,54.128723 
	C510.880005,53.834866 509.865570,53.664673 509.056641,53.163074 
	C508.249268,52.662476 507.647705,51.829887 506.955933,51.142845 
	C507.710968,50.456188 508.368439,49.363689 509.238251,49.154636 
	C512.621094,48.341618 516.071289,47.809048 519.908447,47.095516 
	C519.908447,63.628933 519.908447,80.027283 519.908447,95.551407 
	C522.093628,97.459427 523.622192,98.794106 525.150757,100.128777 
	C523.980469,100.780724 522.810242,101.432686 521.226196,102.151001 
M506.428070,69.919289 
	C500.563263,68.920441 496.109528,70.220879 495.407318,74.647758 
	C494.445526,80.711388 494.471130,87.129059 495.332092,93.217003 
	C495.934723,97.478104 500.725983,99.231049 505.275116,98.321350 
	C509.877533,97.400993 512.119934,94.716530 511.989349,89.960899 
	C511.880005,85.978508 511.862061,81.987167 511.997131,78.006355 
	C512.125061,74.237144 510.619507,71.625839 506.428070,69.919289 
z"/>
<path fill="#0B0B0B" opacity="1.000000" stroke="none" 
	d="
M188.439270,103.801559 
	C182.705231,104.327248 177.693481,103.799240 173.403091,98.986641 
	C173.182663,100.500465 173.035538,101.510872 172.852142,102.770294 
	C170.828949,102.770294 168.774231,102.770294 166.504349,102.770294 
	C166.504349,97.825539 166.504349,93.060547 166.504349,88.020004 
	C168.549591,88.020004 170.490204,88.020004 172.462601,88.020004 
	C174.658829,98.087685 178.805756,101.026421 188.093811,98.919785 
	C192.054779,98.021400 194.567474,95.663834 194.973999,91.435539 
	C195.371445,87.301521 193.886810,84.173660 189.847336,82.778198 
	C186.560608,81.642784 183.122299,80.953217 179.808304,79.888283 
	C173.037125,77.712402 167.904953,73.915298 167.103256,66.187820 
	C166.461929,60.006264 169.123520,54.563515 174.508820,52.142254 
	C181.423218,49.033520 188.288895,48.557388 194.660461,54.357609 
	C194.906738,53.207245 195.121887,52.202282 195.360138,51.089401 
	C197.398331,51.089401 199.380585,51.089401 201.640991,51.089401 
	C201.640991,55.915680 201.640991,60.659351 201.640991,65.654205 
	C199.592819,65.654205 197.670746,65.654205 195.387390,65.654205 
	C195.122269,63.636871 195.157791,61.460159 194.511749,59.509140 
	C193.233337,55.648376 188.389969,54.007771 181.935440,54.915672 
	C177.862595,55.488560 175.113632,57.517040 174.632370,61.819180 
	C174.064255,66.897614 177.021912,69.505424 181.398911,70.898636 
	C183.928040,71.703651 186.546814,72.222122 189.101089,72.953880 
	C198.130478,75.540588 202.635971,80.536865 202.700348,87.968178 
	C202.770523,96.068932 198.320389,101.141853 188.439270,103.801559 
z"/>
<path fill="#0D0D0D" opacity="1.000000" stroke="none" 
	d="
M51.230911,104.194977 
	C41.695534,113.972702 32.414059,123.501137 22.989031,133.176941 
	C21.412390,131.495270 20.529194,130.553223 19.217424,129.154068 
	C27.591059,120.857880 35.848560,112.678291 44.104099,104.496719 
	C46.943306,101.682945 49.926369,98.996094 52.572685,96.010986 
	C55.264370,92.974693 57.255711,93.436554 59.874634,96.220306 
	C64.548851,101.188683 69.565109,105.835266 74.896545,111.065926 
	C90.444122,96.267159 106.137070,81.330025 122.283371,65.961372 
	C120.243217,65.679367 118.846542,65.486313 117.225189,65.262199 
	C117.225189,63.920597 117.225189,62.643410 117.225189,61.239204 
	C121.363548,61.239204 127.250999,59.559227 129.444855,61.687202 
	C131.892471,64.061325 130.984421,69.895042 131.581848,74.574783 
	C129.533127,74.574783 128.297302,74.574783 126.734398,74.574783 
	C126.479912,73.179756 126.197784,71.633209 125.787117,69.382050 
	C118.358376,76.384956 111.245827,83.053574 104.174294,89.765404 
	C95.839371,97.676353 87.544868,105.629883 79.223190,113.554817 
	C74.597893,117.959595 74.602257,117.937202 69.884712,113.167801 
	C65.443367,108.677658 60.970093,104.219101 54.981007,98.212257 
	C53.758850,100.216476 52.621830,102.081078 51.230911,104.194977 
z"/>
<path fill="#060606" opacity="1.000000" stroke="none" 
	d="
M379.944519,98.955261 
	C385.403992,99.034241 385.403992,99.034241 385.138916,102.825333 
	C378.033752,102.825333 370.912201,102.825333 363.354034,102.825333 
	C363.247406,101.806999 363.125031,100.638130 362.955841,99.022064 
	C365.368347,99.022064 367.442749,99.022064 369.720825,99.022064 
	C369.720825,84.375854 369.720825,70.141914 369.720825,55.608696 
	C366.026611,55.608696 362.462830,55.608696 358.496033,55.608696 
	C358.496033,58.308887 358.496033,60.894241 358.496033,63.770523 
	C356.179352,63.770523 354.255310,63.770523 351.996552,63.770523 
	C351.996552,59.648483 351.996552,55.444080 351.996552,51.114014 
	C366.883331,51.114014 381.655518,51.114014 396.710266,51.114014 
	C396.710266,55.295185 396.710266,59.366779 396.710266,63.751373 
	C394.745209,63.751373 392.703308,63.751373 390.338531,63.751373 
	C390.219299,61.117329 390.101440,58.514095 389.970154,55.613480 
	C386.455353,55.613480 383.040497,55.613480 379.133148,55.613480 
	C379.028198,56.909683 378.818237,58.319057 378.815002,59.728912 
	C378.788330,71.374161 378.776611,83.019592 378.830078,94.664650 
	C378.836609,96.084816 379.255524,97.503090 379.944519,98.955261 
z"/>
<path fill="#090909" opacity="1.000000" stroke="none" 
	d="
M309.283691,83.141716 
	C309.293243,88.278587 309.298004,92.934883 309.323547,97.591072 
	C309.325226,97.893784 309.486603,98.195625 309.667877,98.824768 
	C310.966125,98.980011 312.383850,99.149536 313.814087,99.320564 
	C315.325134,102.816200 312.959930,103.430573 310.580780,103.779205 
	C306.184479,104.423416 302.544525,103.615395 301.898468,99.796608 
	C297.745422,101.154327 293.504852,103.417747 289.113983,103.761566 
	C283.176361,104.226517 279.438354,100.397980 278.891907,95.099030 
	C278.240875,88.785912 280.799255,84.491661 286.815826,83.152336 
	C291.293030,82.155678 295.968323,82.048927 300.583374,81.542763 
	C302.012146,70.148209 298.355103,66.309845 288.071747,68.868454 
	C288.461609,69.891907 289.257904,70.947342 289.131531,71.877426 
	C288.905182,73.543541 288.565308,75.963531 287.464050,76.550194 
	C286.030518,77.313866 283.264313,77.274490 282.080963,76.324028 
	C280.933441,75.402313 281.040497,72.894989 280.656982,71.071312 
	C280.599579,70.798462 280.850281,70.445328 280.995850,70.147629 
	C283.179291,65.682625 291.641968,62.883286 298.897064,64.220863 
	C305.351440,65.410820 308.754852,68.986153 309.164124,75.181549 
	C309.328278,77.666527 309.251038,80.167450 309.283691,83.141716 
M300.383911,85.826004 
	C298.065216,85.864143 295.726257,85.721619 293.432098,85.978737 
	C288.919983,86.484428 286.823761,89.061554 287.155426,93.290848 
	C287.464142,97.227341 289.949921,98.867798 293.506195,98.800797 
	C297.511566,98.725365 300.678253,97.171326 300.968109,92.532356 
	C301.091949,90.550362 300.973846,88.553261 300.383911,85.826004 
z"/>
<path fill="#0A0A0A" opacity="1.000000" stroke="none" 
	d="
M451.841675,82.518318 
	C455.893036,82.187317 459.529419,81.964584 463.137390,81.743591 
	C465.079559,70.817978 459.884064,65.657898 450.458679,69.059242 
	C450.936523,70.041443 452.040375,71.306068 451.753632,71.905495 
	C450.816986,73.863609 449.722687,76.584335 448.047729,77.166374 
	C445.105316,78.188850 442.951782,76.267006 442.934418,72.908737 
	C442.928772,71.813179 443.286194,70.589256 443.843719,69.638809 
	C446.497894,65.114021 455.411102,62.741402 462.523254,64.554634 
	C468.720154,66.134514 471.726929,69.739479 471.873932,76.364388 
	C472.036377,83.684395 471.911011,91.010788 471.911011,98.721100 
	C473.542664,98.953667 475.081665,99.173027 476.620667,99.392387 
	C476.894531,99.773758 477.168427,100.155136 477.442322,100.536514 
	C476.130157,101.602486 474.970306,103.221596 473.477783,103.632599 
	C468.650269,104.961960 466.160919,103.460999 463.764252,98.429596 
	C458.816284,103.924080 453.054260,105.532211 447.128296,102.974838 
	C442.513977,100.983498 440.916565,97.138794 441.219177,92.438622 
	C441.571808,86.961388 444.466553,84.299934 451.841675,82.518318 
M454.011627,98.598763 
	C462.386688,99.045692 464.580475,96.064461 463.086639,85.944153 
	C460.691925,85.944153 458.046509,85.356613 455.862427,86.108757 
	C453.661102,86.866821 450.975433,88.583107 450.198761,90.549683 
	C449.082764,93.375412 449.222168,96.925407 454.011627,98.598763 
z"/>
<path fill="#090909" opacity="1.000000" stroke="none" 
	d="
M554.017700,83.983330 
	C549.887085,83.983330 546.248596,83.983330 542.641479,83.983330 
	C542.110840,91.193832 543.958374,95.261978 548.475586,97.258781 
	C553.202393,99.348259 558.020630,97.956383 562.795532,93.452942 
	C563.569824,92.722672 565.176941,92.875465 567.045105,92.485107 
	C563.272583,102.099297 555.154663,105.843437 545.909241,103.184273 
	C536.452759,100.464417 531.750427,90.989189 533.883789,78.953178 
	C535.599731,69.272720 543.064697,63.323200 552.555664,64.071808 
	C562.235779,64.835335 567.638428,71.667122 567.744690,83.983330 
	C563.344238,83.983330 558.927002,83.983330 554.017700,83.983330 
M547.566162,68.867699 
	C542.821289,71.013306 542.516724,75.234596 542.311218,79.803772 
	C547.953796,79.803772 553.364136,79.803772 558.765991,79.803772 
	C559.287292,70.986252 555.970154,67.491203 547.566162,68.867699 
z"/>
<path fill="#090909" opacity="1.000000" stroke="none" 
	d="
M119.275421,97.453018 
	C119.274513,114.227104 119.137306,130.549469 119.365570,146.866730 
	C119.425049,151.118286 118.047630,152.278122 113.953873,152.095917 
	C104.555595,151.677612 105.216194,153.704910 105.203613,143.218155 
	C105.185028,127.730385 105.333290,112.240654 105.112877,96.756004 
	C105.049515,92.305023 106.618919,90.595421 110.918335,91.128563 
	C111.738403,91.230247 112.596397,91.243927 113.412155,91.126427 
	C118.018822,90.462898 120.022377,92.344612 119.275421,97.453018 
M114.766899,145.784180 
	C114.766899,129.333633 114.766899,112.883087 114.766899,96.246460 
	C112.979248,96.246460 111.609802,96.246460 110.250931,96.246460 
	C110.250931,113.420464 110.250931,130.332520 110.250931,147.829346 
	C111.965080,147.364655 113.305923,147.001144 114.766899,145.784180 
z"/>
<path fill="#0E0E0E" opacity="1.000000" stroke="none" 
	d="
M247.161041,94.835373 
	C247.161057,86.720291 247.161057,79.086517 247.161057,71.232010 
	C246.145065,70.861931 245.168716,70.665550 244.375656,70.173676 
	C243.543488,69.657562 242.887009,68.858147 242.153748,68.182541 
	C242.909760,67.481667 243.564453,66.368004 244.439774,66.153114 
	C247.797913,65.328735 251.226822,64.792725 255.012833,64.076576 
	C255.184113,65.805466 255.337799,67.356621 255.526291,69.259132 
	C257.699829,67.600525 259.395203,65.834282 261.460449,64.824539 
	C266.488983,62.365990 272.272186,65.250458 272.424683,70.128983 
	C272.524414,73.319527 271.278381,75.855545 267.691254,75.854141 
	C264.295258,75.852806 262.487305,73.994255 263.039642,70.372398 
	C263.132965,69.760490 263.133606,69.134453 263.197693,68.220741 
	C258.389160,69.538490 255.722015,72.256424 255.678848,77.074806 
	C255.615051,84.196602 255.662338,91.319397 255.662338,98.395912 
	C261.790863,99.456444 261.790863,99.456444 261.833008,102.793823 
	C255.420105,102.793823 249.007904,102.793823 240.829590,102.793823 
	C242.524124,100.945732 243.468185,99.093384 244.317490,99.135849 
	C247.564102,99.298195 247.243011,97.333153 247.161041,94.835373 
z"/>
<path fill="#090909" opacity="1.000000" stroke="none" 
	d="
M424.594574,68.579399 
	C420.520569,69.490891 418.143250,72.177444 418.003845,76.186775 
	C417.745239,83.624550 417.929749,91.077736 417.929749,98.801216 
	C419.987732,98.911797 421.757782,99.006905 423.917999,99.122978 
	C424.006775,100.274628 424.097443,101.450836 424.204071,102.834015 
	C417.607544,102.834015 411.338654,102.834015 405.080017,102.834015 
	C404.621674,99.215340 404.621674,99.215340 409.525177,98.580864 
	C409.525177,90.081657 409.612885,81.498367 409.398926,72.922600 
	C409.375732,71.993446 407.603058,71.111557 406.648376,70.200897 
	C405.928833,69.514481 405.219788,68.817101 404.506042,68.124603 
	C405.282928,67.437485 405.962921,66.350105 406.853912,66.134460 
	C410.218201,65.320206 413.651031,64.789154 417.318787,64.103378 
	C417.541962,65.887413 417.740631,67.475693 417.972168,69.326683 
	C419.594879,67.904648 420.914337,66.433388 422.517883,65.405083 
	C426.540314,62.825603 432.285950,63.743195 433.815796,67.520798 
	C434.568909,69.380417 434.398743,72.209312 433.452972,73.951859 
	C432.824463,75.109856 429.518768,76.069725 428.425323,75.417770 
	C426.896118,74.505981 426.311737,72.009628 425.596008,69.619934 
	C425.444092,68.892227 425.019348,68.735809 424.594574,68.579399 
z"/>
<path fill="#090909" opacity="1.000000" stroke="none" 
	d="
M596.594666,68.579376 
	C592.520630,69.490799 590.143250,72.177368 590.003845,76.186661 
	C589.745178,83.624580 589.929688,91.077911 589.929688,98.801033 
	C591.987671,98.911705 593.757690,99.006897 595.918030,99.123070 
	C596.006836,100.274559 596.097534,101.450775 596.204224,102.834000 
	C589.607605,102.834000 583.338684,102.834000 577.080078,102.834000 
	C576.621704,99.215363 576.621704,99.215363 581.525208,98.580856 
	C581.525208,90.081657 581.612976,81.498360 581.398987,72.922592 
	C581.375854,71.993446 579.603027,71.111588 578.648438,70.200897 
	C577.928833,69.514503 577.219788,68.817108 576.505981,68.124634 
	C577.282837,67.437515 577.962891,66.350090 578.853821,66.134445 
	C582.218140,65.320198 585.651001,64.789169 589.318787,64.103401 
	C589.541809,65.887466 589.740356,67.475739 589.971802,69.327026 
	C591.594910,67.904686 592.914307,66.433411 594.517883,65.405106 
	C598.540344,62.825554 604.285828,63.743145 605.815735,67.520805 
	C606.568848,69.380432 606.398743,72.209297 605.453003,73.951843 
	C604.824463,75.109833 601.518738,76.069702 600.425293,75.417732 
	C598.896118,74.505989 598.311707,72.009651 597.595947,69.619980 
	C597.444092,68.892258 597.019409,68.735817 596.594666,68.579376 
z"/>
<path fill="#111111" opacity="1.000000" stroke="none" 
	d="
M234.362213,65.271324 
	C234.756348,66.617546 234.756348,67.756775 234.756348,69.243340 
	C231.715210,69.243340 228.925827,69.243340 225.852295,69.243340 
	C225.852295,79.184219 225.852295,88.783546 225.852295,98.911880 
	C228.574799,98.911880 231.479874,98.911880 234.712860,98.911880 
	C234.712860,100.204865 234.834869,101.620331 234.695145,101.646660 
	C230.464203,102.443832 226.186966,103.734077 221.960983,103.596352 
	C218.252594,103.475479 217.148224,99.964935 217.129059,96.553734 
	C217.079559,87.749115 217.112457,78.944046 217.112457,69.817047 
	C215.480255,69.487015 213.960159,69.179657 210.910721,68.563057 
	C212.567322,66.926262 213.677521,65.967850 214.621567,64.866966 
	C216.434357,62.752949 218.652252,60.786446 219.773514,58.334175 
	C220.951141,55.758625 221.783829,53.823925 225.367035,55.218967 
	C225.367035,58.148117 225.367035,61.253956 225.367035,65.064323 
	C228.457001,65.064323 231.212555,65.064323 234.362213,65.271324 
z"/>
<path fill="#101010" opacity="1.000000" stroke="none" 
	d="
M334.870117,61.111755 
	C334.587616,63.904728 335.054260,65.421494 337.983917,65.017128 
	C339.767853,64.770889 341.613525,64.971687 343.726685,64.971687 
	C343.726685,66.383308 343.726685,67.603195 343.726685,69.171410 
	C340.970825,69.171410 338.192902,69.171410 335.143066,69.171410 
	C335.143066,79.237762 335.143066,88.961670 335.143066,99.041412 
	C338.051727,99.041412 340.820068,99.041412 343.772278,99.041412 
	C343.772278,100.326721 343.886047,102.057297 343.755798,102.075851 
	C339.424835,102.693092 334.962677,103.884537 330.771332,103.271484 
	C329.025177,103.016083 326.751373,98.928719 326.610626,96.475197 
	C326.106750,87.690239 326.413208,78.858803 326.413208,70.700981 
	C324.191772,69.190460 322.470581,68.020096 320.749390,66.849731 
	C320.861542,66.320778 320.973694,65.791817 321.085815,65.262863 
	C326.470917,65.548149 328.229706,62.201359 329.207489,58.039902 
	C329.904907,55.071800 331.549957,53.849594 334.870087,55.394394 
	C334.870087,57.068035 334.870087,58.862495 334.870117,61.111755 
z"/>
<path fill="#0B0B0B" opacity="1.000000" stroke="none" 
	d="
M94.885162,152.019211 
	C92.118439,152.019211 89.810402,152.019211 87.108070,152.019211 
	C86.913094,150.251266 86.623764,148.822083 86.618706,147.391876 
	C86.580399,136.570175 86.694458,125.746918 86.542763,114.927208 
	C86.493187,111.391930 87.441910,109.872795 91.315849,109.894279 
	C100.718246,109.946434 100.719421,109.766823 100.718903,119.342331 
	C100.718399,128.499268 100.533897,137.661530 100.798538,146.810791 
	C100.920570,151.029633 99.442978,152.666000 94.885162,152.019211 
M95.982109,126.516258 
	C95.982109,122.734894 95.982109,118.953529 95.982109,114.853210 
	C94.198723,114.943245 92.828209,115.012436 91.398170,115.084633 
	C91.398170,125.979019 91.398170,136.499710 91.398170,147.180176 
	C93.022903,147.180176 94.387131,147.180176 95.982109,147.180176 
	C95.982109,140.399078 95.982109,133.954575 95.982109,126.516258 
z"/>
<path fill="#090909" opacity="1.000000" stroke="none" 
	d="
M63.122017,147.775192 
	C63.388786,150.983719 62.301395,152.121613 59.416729,152.059952 
	C47.123508,151.797195 49.218876,153.545822 49.079819,142.355911 
	C48.976398,134.033875 49.208118,125.705650 48.993114,117.387863 
	C48.893661,113.540276 50.125854,112.053650 54.108444,112.067146 
	C63.122635,112.097694 63.123322,111.931664 63.123238,120.830971 
	C63.123150,129.653717 63.122776,138.476456 63.122017,147.775192 
M58.569973,124.617630 
	C58.569973,122.163673 58.569973,119.709717 58.569973,116.904045 
	C56.680359,117.054794 55.310108,117.164116 54.151024,117.256584 
	C54.151024,127.586838 54.151024,137.468994 54.151024,147.253357 
	C57.385502,148.125641 58.736454,147.323547 58.628174,143.997696 
	C58.428581,137.866806 58.570812,131.724792 58.569973,124.617630 
z"/>
<path fill="#101010" opacity="1.000000" stroke="none" 
	d="
M74.974350,123.971886 
	C81.965233,124.004547 81.967636,124.004547 81.971458,130.652267 
	C81.974716,136.318558 81.860397,141.987900 82.015350,147.649948 
	C82.100502,150.761688 81.216728,152.181183 77.791420,152.085602 
	C65.903656,151.753815 68.112434,153.596451 67.895554,142.473236 
	C67.817596,138.475006 67.880119,134.473999 67.883156,130.474258 
	C67.888069,123.997070 67.889679,123.997070 74.974350,123.971886 
M77.101608,136.540207 
	C77.101608,134.106079 77.101608,131.671967 77.101608,128.821442 
	C75.290237,129.000610 73.978424,129.130371 72.617714,129.264954 
	C72.617714,134.421158 72.714104,139.051758 72.584633,143.676025 
	C72.494759,146.886093 73.296043,148.519943 77.101608,146.707550 
	C77.101608,143.751450 77.101608,140.635483 77.101608,136.540207 
z"/>
<path fill="#0A0A0A" opacity="1.000000" stroke="none" 
	d="
M33.388855,152.014526 
	C32.062176,150.869781 30.498716,149.763489 30.437372,148.579361 
	C30.162329,143.270142 30.356529,137.938278 30.295475,132.615570 
	C30.264309,129.898712 31.428425,128.898422 34.183376,128.752869 
	C44.432751,128.211395 44.428509,128.122589 44.431263,138.155319 
	C44.432484,142.608612 44.431469,147.061905 44.431469,152.017136 
	C40.431149,152.017136 37.137405,152.017136 33.388855,152.014526 
M39.892025,136.782669 
	C40.312263,132.715195 38.241566,132.563507 35.200722,133.645874 
	C35.200722,138.231369 35.200722,142.623032 35.200722,147.246429 
	C36.755482,147.246429 38.122505,147.246429 39.891644,147.246429 
	C39.891644,143.870483 39.891644,140.784302 39.892025,136.782669 
z"/>
<path fill="#151515" opacity="1.000000" stroke="none" 
	d="
M26.057262,81.880325 
	C24.515665,80.638329 23.403156,79.393585 21.532679,77.300774 
	C21.607365,77.310822 20.324577,77.138321 18.906862,76.947678 
	C18.906862,75.541199 18.906862,74.260490 18.906862,74.300644 
	C21.201803,72.100716 22.764593,70.602631 24.327383,69.104538 
	C24.071829,68.752113 23.816277,68.399681 23.560724,68.047256 
	C24.839268,67.951721 26.117809,67.856186 27.769037,67.732811 
	C27.965500,69.288818 28.141642,70.683876 28.332048,72.191933 
	C29.713636,72.347855 30.995630,72.492538 32.574413,72.670715 
	C32.683430,74.011185 32.784447,75.253265 32.914684,76.854607 
	C31.323574,77.090462 29.924341,77.297867 28.971619,77.439087 
	C28.032829,79.115692 27.259588,80.496643 26.057262,81.880325 
z"/>
<path fill="#0E0E0E" opacity="1.000000" stroke="none" 
	d="
M129.896835,35.005112 
	C130.637741,36.400444 130.934189,37.769447 131.291458,39.419357 
	C129.516922,39.718010 128.120071,39.953098 126.723213,40.188187 
	C126.953285,40.426376 127.183350,40.664570 127.413414,40.902763 
	C126.106041,42.334244 124.798668,43.765724 122.560158,46.216736 
	C121.923347,43.066849 121.646011,41.695057 121.326714,40.115696 
	C120.081810,39.973629 118.816444,39.829224 117.213890,39.646343 
	C117.141266,38.219269 117.070374,36.826256 116.989555,35.238129 
	C118.520416,35.074474 119.795303,34.938183 121.328697,34.774258 
	C121.579124,33.466839 121.842873,32.089878 122.421127,29.070940 
	C124.247383,30.920862 125.219299,32.060707 126.353470,33.005840 
	C127.286530,33.783379 128.412109,34.329887 129.896835,35.005112 
z"/>
<path fill="#1F1F1F" opacity="1.000000" stroke="none" 
	d="
M344.721802,132.913452 
	C344.339172,134.124817 343.991577,135.596390 343.171692,135.939545 
	C341.931885,136.458450 340.363007,136.191147 338.379547,136.283859 
	C339.284210,138.059204 339.957855,139.381180 340.703583,140.844620 
	C336.219177,138.494614 335.833099,137.061462 338.154144,132.371094 
	C340.315552,132.471664 342.430450,132.570068 344.721802,132.913452 
z"/>
<path fill="#ECECEC" opacity="1.000000" stroke="none" 
	d="
M257.481171,134.545776 
	C255.436874,133.898163 253.618073,133.531158 251.799255,133.164169 
	C251.651062,132.840607 251.502853,132.517044 251.354645,132.193481 
	C253.103592,131.959198 255.327042,130.959351 256.485718,131.677475 
	C258.060913,132.653793 259.592773,134.902756 259.686096,136.682358 
	C259.759247,138.076950 257.619415,139.587570 256.462769,141.046646 
	C256.145233,140.775879 255.827728,140.505112 255.510208,140.234344 
	C256.242371,138.431702 256.974518,136.629059 257.481171,134.545776 
z"/>
<path fill="#ECECEC" opacity="1.000000" stroke="none" 
	d="
M399.543304,132.269028 
	C401.976898,132.040710 404.659454,131.414551 406.358612,132.431488 
	C407.453278,133.086655 407.544800,136.226730 407.234253,138.112869 
	C407.052643,139.216125 405.196503,140.043701 403.506287,140.221085 
	C404.235504,138.439911 404.964722,136.658737 405.693939,134.877579 
	C403.790131,134.491455 401.876312,134.145599 399.993439,133.675552 
	C399.712738,133.605469 399.577759,132.951584 399.543304,132.269028 
z"/>
<path fill="#1F1F1F" opacity="1.000000" stroke="none" 
	d="
M492.152283,130.890259 
	C491.854645,133.880264 491.173096,136.817535 490.491516,139.754807 
	C490.145325,139.760315 489.799103,139.765839 489.452881,139.771362 
	C489.452881,135.939590 489.452881,132.107834 489.452881,128.276062 
	C489.824158,128.238266 490.195435,128.200470 490.566711,128.162674 
	C490.967255,129.054291 491.367767,129.945892 492.152283,130.890259 
z"/>
<path fill="#E7E7E7" opacity="1.000000" stroke="none" 
	d="
M500.953674,133.692612 
	C500.302704,133.393784 499.941742,132.926361 499.580780,132.458923 
	C501.893860,132.197281 504.206940,131.935638 506.519989,131.673981 
	C506.539734,132.290665 506.559448,132.907333 506.579163,133.524017 
	C504.800659,133.524017 503.022156,133.524017 500.953674,133.692612 
z"/>
<path fill="#F3F3F3" opacity="1.000000" stroke="none" 
	d="
M308.982727,136.098129 
	C309.934113,135.444580 310.865051,135.188019 311.796021,134.931458 
	C311.631653,136.164566 311.467255,137.397659 311.302856,138.630768 
	C310.522644,137.918884 309.742493,137.207001 308.982727,136.098129 
z"/>
<path fill="#ECECEC" opacity="1.000000" stroke="none" 
	d="
M252.026169,138.255875 
	C252.644440,138.676102 252.966339,139.131104 253.288254,139.586090 
	C252.850784,139.658997 252.413300,139.731903 251.975830,139.804810 
	C251.893829,139.300079 251.811829,138.795349 252.026169,138.255875 
z"/>
<path fill="#ECECEC" opacity="1.000000" stroke="none" 
	d="
M400.026184,138.255859 
	C400.644440,138.676102 400.966370,139.131104 401.288269,139.586105 
	C400.850800,139.658997 400.413330,139.731888 399.975861,139.804779 
	C399.893829,139.300064 399.811829,138.795334 400.026184,138.255859 
z"/>
<path fill="#E7E7E7" opacity="1.000000" stroke="none" 
	d="
M302.092651,132.874786 
	C302.981567,133.118469 303.870483,133.362152 304.759399,133.605835 
	C304.674042,133.890747 304.588684,134.175674 304.503326,134.460587 
	C303.748230,134.183075 302.993134,133.905563 302.110291,133.320312 
	C301.982513,133.012573 302.092651,132.874786 302.092651,132.874786 
z"/>
<path fill="#F3F3F3" opacity="1.000000" stroke="none" 
	d="
M310.607361,132.207703 
	C310.931854,131.832108 311.196381,131.685577 311.460907,131.539047 
	C311.541199,131.815002 311.621521,132.090942 311.701813,132.366898 
	C311.317017,132.390182 310.932190,132.413467 310.607361,132.207703 
z"/>
<path fill="#E7E7E7" opacity="1.000000" stroke="none" 
	d="
M301.924500,133.079041 
	C301.129791,133.027817 300.393066,132.910126 299.656342,132.792450 
	C299.681824,132.591660 299.707275,132.390854 299.732758,132.190063 
	C300.388977,132.268112 301.045227,132.346176 301.897034,132.649506 
	C302.092651,132.874786 301.982513,133.012573 301.924500,133.079041 
z"/>
<path fill="#F3F3F3" opacity="1.000000" stroke="none" 
	d="
M44.480904,33.616440 
	C53.859032,19.634859 67.395859,13.924679 83.000877,17.164488 
	C96.615952,19.991159 107.136551,31.756117 109.593880,46.902905 
	C112.605896,65.468681 98.137566,84.207985 79.173798,86.302818 
	C59.217140,88.507332 41.159927,73.835747 39.924946,54.595146 
	C39.452896,47.240814 40.700096,40.364925 44.480904,33.616440 
M44.606247,48.021187 
	C44.907593,51.810749 44.653336,55.746815 45.607204,59.364319 
	C49.574188,74.408928 64.189217,84.018768 78.905861,81.632332 
	C95.303864,78.973244 106.075539,65.666809 105.059349,49.324493 
	C104.117699,34.181011 91.686859,21.833694 76.623833,21.080057 
	C60.649940,20.280846 47.134090,31.355005 44.606247,48.021187 
z"/>
<path fill="#F9F9F9" opacity="1.000000" stroke="none" 
	d="
M506.796936,70.025238 
	C510.619507,71.625839 512.125061,74.237144 511.997131,78.006355 
	C511.862061,81.987167 511.880005,85.978508 511.989349,89.960899 
	C512.119934,94.716530 509.877533,97.400993 505.275116,98.321350 
	C500.725983,99.231049 495.934723,97.478104 495.332092,93.217003 
	C494.471130,87.129059 494.445526,80.711388 495.407318,74.647758 
	C496.109528,70.220879 500.563263,68.920441 506.796936,70.025238 
z"/>
<path fill="#F7F7F7" opacity="1.000000" stroke="none" 
	d="
M300.674805,86.194519 
	C300.973846,88.553261 301.091949,90.550362 300.968109,92.532356 
	C300.678253,97.171326 297.511566,98.725365 293.506195,98.800797 
	C289.949921,98.867798 287.464142,97.227341 287.155426,93.290848 
	C286.823761,89.061554 288.919983,86.484428 293.432098,85.978737 
	C295.726257,85.721619 298.065216,85.864143 300.674805,86.194519 
z"/>
<path fill="#F3F3F3" opacity="1.000000" stroke="none" 
	d="
M453.632507,98.458496 
	C449.222168,96.925407 449.082764,93.375412 450.198761,90.549683 
	C450.975433,88.583107 453.661102,86.866821 455.862427,86.108757 
	C458.046509,85.356613 460.691925,85.944153 463.086639,85.944153 
	C464.580475,96.064461 462.386688,99.045692 453.632507,98.458496 
z"/>
<path fill="#F7F7F7" opacity="1.000000" stroke="none" 
	d="
M547.927673,68.735794 
	C555.970154,67.491203 559.287292,70.986252 558.765991,79.803772 
	C553.364136,79.803772 547.953796,79.803772 542.311218,79.803772 
	C542.516724,75.234596 542.821289,71.013306 547.927673,68.735794 
z"/>
<path fill="#ECECEC" opacity="1.000000" stroke="none" 
	d="
M114.706833,146.210907 
	C113.305923,147.001144 111.965080,147.364655 110.250931,147.829346 
	C110.250931,130.332520 110.250931,113.420464 110.250931,96.246460 
	C111.609802,96.246460 112.979248,96.246460 114.766899,96.246460 
	C114.766899,112.883087 114.766899,129.333633 114.706833,146.210907 
z"/>
<path fill="#FEFEFE" opacity="1.000000" stroke="none" 
	d="
M424.827698,68.812729 
	C425.019348,68.735809 425.444092,68.892227 425.710846,69.267029 
	C425.388824,69.338974 425.224823,69.192520 424.827698,68.812729 
z"/>
<path fill="#FEFEFE" opacity="1.000000" stroke="none" 
	d="
M596.827759,68.812744 
	C597.019409,68.735817 597.444092,68.892258 597.710815,69.267082 
	C597.388855,69.339012 597.224792,69.192558 596.827759,68.812744 
z"/>
<path fill="#ECECEC" opacity="1.000000" stroke="none" 
	d="
M95.982109,127.013168 
	C95.982109,133.954575 95.982109,140.399078 95.982109,147.180176 
	C94.387131,147.180176 93.022903,147.180176 91.398170,147.180176 
	C91.398170,136.499710 91.398170,125.979019 91.398170,115.084633 
	C92.828209,115.012436 94.198723,114.943245 95.982109,114.853210 
	C95.982109,118.953529 95.982109,122.734894 95.982109,127.013168 
z"/>
<path fill="#E3E3E3" opacity="1.000000" stroke="none" 
	d="
M58.570293,125.102516 
	C58.570812,131.724792 58.428581,137.866806 58.628174,143.997696 
	C58.736454,147.323547 57.385502,148.125641 54.151024,147.253357 
	C54.151024,137.468994 54.151024,127.586838 54.151024,117.256584 
	C55.310108,117.164116 56.680359,117.054794 58.569973,116.904045 
	C58.569973,119.709717 58.569973,122.163673 58.570293,125.102516 
z"/>
<path fill="#FEFEFE" opacity="1.000000" stroke="none" 
	d="
M77.101608,137.029846 
	C77.101608,140.635483 77.101608,143.751450 77.101608,146.707550 
	C73.296043,148.519943 72.494759,146.886093 72.584633,143.676025 
	C72.714104,139.051758 72.617714,134.421158 72.617714,129.264954 
	C73.978424,129.130371 75.290237,129.000610 77.101608,128.821442 
	C77.101608,131.671967 77.101608,134.106079 77.101608,137.029846 
z"/>
<path fill="#E7E7E7" opacity="1.000000" stroke="none" 
	d="
M39.891834,137.240387 
	C39.891644,140.784302 39.891644,143.870483 39.891644,147.246429 
	C38.122505,147.246429 36.755482,147.246429 35.200722,147.246429 
	C35.200722,142.623032 35.200722,138.231369 35.200722,133.645874 
	C38.241566,132.563507 40.312263,132.715195 39.891834,137.240387 
z"/>
<path fill="#0D0D0D" opacity="1.000000" stroke="none" 
	d="
M44.675251,47.610825 
	C47.134090,31.355005 60.649940,20.280846 76.623833,21.080057 
	C91.686859,21.833694 104.117699,34.181011 105.059349,49.324493 
	C106.075539,65.666809 95.303864,78.973244 78.905861,81.632332 
	C64.189217,84.018768 49.574188,74.408928 45.607204,59.364319 
	C44.653336,55.746815 44.907593,51.810749 44.675251,47.610825 
M51.021801,61.217819 
	C57.870369,75.167923 71.201233,80.628052 84.947662,75.113380 
	C96.977684,70.287292 103.350586,56.375050 99.304703,43.771526 
	C94.846848,29.884665 80.690002,22.670042 66.655418,27.132763 
	C52.895409,31.508177 46.176750,45.624146 51.021801,61.217819 
z"/>
<path fill="#F6F6F6" opacity="1.000000" stroke="none" 
	d="
M50.905720,60.842369 
	C46.176750,45.624146 52.895409,31.508177 66.655418,27.132763 
	C80.690002,22.670042 94.846848,29.884665 99.304703,43.771526 
	C103.350586,56.375050 96.977684,70.287292 84.947662,75.113380 
	C71.201233,80.628052 57.870369,75.167923 50.905720,60.842369 
M82.547989,34.959846 
	C74.852806,29.929451 75.138184,30.445559 67.096222,34.892235 
	C60.041481,38.793049 58.077702,43.808685 58.144096,51.688431 
	C58.208755,59.361671 60.204964,64.208145 66.982384,68.067947 
	C75.029953,72.651108 74.416534,72.541275 82.195480,68.365028 
	C89.700966,64.335602 91.682968,59.049011 91.509880,50.814541 
	C91.357529,43.566669 90.074959,38.307671 82.547989,34.959846 
z"/>
<path fill="#0D0D0D" opacity="1.000000" stroke="none" 
	d="
M82.846909,35.162819 
	C90.074959,38.307671 91.357529,43.566669 91.509880,50.814541 
	C91.682968,59.049011 89.700966,64.335602 82.195480,68.365028 
	C74.416534,72.541275 75.029953,72.651108 66.982384,68.067947 
	C60.204964,64.208145 58.208755,59.361671 58.144096,51.688431 
	C58.077702,43.808685 60.041481,38.793049 67.096222,34.892235 
	C75.138184,30.445559 74.852806,29.929451 82.846909,35.162819 
M85.401031,60.192894 
	C85.765259,54.860352 86.804863,49.444012 86.158791,44.236820 
	C85.903061,42.175694 81.907562,40.569630 79.598717,38.777126 
	C78.814476,38.168270 78.048874,37.319817 77.153954,37.118862 
	C75.760010,36.805859 74.059319,36.469841 72.842873,36.983116 
	C65.491722,40.084915 61.136761,45.073765 63.084888,53.709766 
	C63.334042,54.814293 62.916142,56.071445 63.175781,57.170860 
	C63.452633,58.343128 63.887856,59.726856 64.733849,60.477142 
	C72.718918,67.558861 74.152534,67.621666 83.097031,61.793098 
	C83.651199,61.431988 84.215149,61.085884 85.401031,60.192894 
z"/>
<path fill="#F8F8F8" opacity="1.000000" stroke="none" 
	d="
M85.087791,60.462845 
	C84.215149,61.085884 83.651199,61.431988 83.097031,61.793098 
	C74.152534,67.621666 72.718918,67.558861 64.733849,60.477142 
	C63.887856,59.726856 63.452633,58.343128 63.175781,57.170860 
	C62.916142,56.071445 63.334042,54.814293 63.084888,53.709766 
	C61.136761,45.073765 65.491722,40.084915 72.842873,36.983116 
	C74.059319,36.469841 75.760010,36.805859 77.153954,37.118862 
	C78.048874,37.319817 78.814476,38.168270 79.598717,38.777126 
	C81.907562,40.569630 85.903061,42.175694 86.158791,44.236820 
	C86.804863,49.444012 85.765259,54.860352 85.087791,60.462845 
z"/>
</svg>