<svg version="1.1" id="Layer_1" xmlns="http://www.w3.org/2000/svg" xmlns:xlink="http://www.w3.org/1999/xlink" x="0px" y="0px"
	 width="100%" viewBox="0 0 128 162" enable-background="new 0 0 128 162" xml:space="preserve">
<path fill="#FCFCFC" opacity="1.000000" stroke="none" 
	d="
M1.000000,126.000000 
	C1.000000,84.000015 1.000000,42.500023 1.000000,1.000028 
	C43.666641,1.000019 86.333282,1.000019 128.999939,1.000009 
	C128.999969,54.999958 128.999969,108.999916 128.999985,162.999908 
	C86.333389,162.999939 43.666775,162.999939 1.000081,162.999969 
	C1.000000,150.833328 1.000000,138.666672 1.000000,126.000000 
M41.545654,78.989777 
	C49.250500,84.873085 57.927532,87.642776 67.627113,87.109100 
	C83.733780,86.222908 95.413353,78.381577 102.077576,63.874458 
	C108.777962,49.288593 106.731880,35.167694 96.860619,22.668617 
	C86.877861,10.028357 73.316330,5.490160 57.702061,8.707911 
	C41.773521,11.990427 31.372076,22.172131 27.439917,37.794598 
	C23.391794,53.877789 28.484686,67.613564 41.545654,78.989777 
M99.071815,75.569519 
	C87.993217,86.131744 76.914612,96.693970 65.777870,107.311623 
	C60.579258,102.120895 55.504475,97.313850 50.753510,92.205627 
	C48.193043,89.452621 46.316299,89.466568 43.846626,92.186600 
	C41.050999,95.265640 37.954838,98.071251 34.999325,101.005798 
	C26.861465,109.085938 18.728823,117.171318 10.282691,125.564079 
	C11.517684,126.843170 12.399240,127.756195 14.033721,129.449036 
	C25.227276,117.746147 36.022152,106.460083 46.614342,95.385933 
	C52.158871,100.727104 57.201832,105.327103 61.924606,110.235199 
	C64.591248,113.006462 66.461121,113.755516 69.600708,110.618355 
	C78.082611,102.143036 86.904770,94.007812 95.607040,85.753578 
	C102.576675,79.142792 109.568466,72.555344 117.028610,65.505661 
	C117.349930,67.756500 117.569077,69.291679 117.781708,70.781136 
	C119.319763,70.781136 120.571381,70.781136 121.809990,70.781136 
	C122.384201,53.865704 123.953049,57.343540 109.114258,57.052284 
	C108.812645,57.046368 108.506111,57.291504 108.296944,57.379513 
	C106.552711,61.959770 110.403778,61.372051 113.338776,62.061947 
	C108.471298,66.673500 104.030403,70.880913 99.071815,75.569519 
M110.456131,93.831451 
	C110.385567,87.149246 110.385567,87.149063 103.875969,87.140762 
	C102.876366,87.139481 101.871750,87.205750 100.878098,87.128922 
	C97.739479,86.886269 96.293602,88.194466 96.304672,91.447708 
	C96.364197,108.940521 96.373528,126.433815 96.297112,143.926498 
	C96.282974,147.162415 97.560402,148.549408 100.765060,148.201065 
	C101.423668,148.129471 102.096733,148.189957 102.763138,148.191162 
	C110.451111,148.205063 110.453888,148.205154 110.454941,140.747864 
	C110.457115,125.420654 110.456001,110.093445 110.456131,93.831451 
M91.839859,137.434937 
	C91.840286,130.114624 91.840843,122.794304 91.841095,115.473984 
	C91.841446,105.301872 91.841354,105.302025 81.587448,105.987953 
	C81.421761,105.999039 81.184975,105.919197 81.098991,106.002769 
	C79.980553,107.090042 77.947426,108.180649 77.925087,109.305756 
	C77.690613,121.113426 77.705765,132.928665 77.893173,144.737976 
	C77.911407,145.887131 79.375168,147.790955 80.453270,148.023911 
	C89.925362,150.070526 91.838669,148.449051 91.839500,138.911270 
	C91.839516,138.744904 91.839531,138.578522 91.839859,137.434937 
M54.234627,123.507133 
	C54.234615,120.346626 53.964954,117.157318 54.298836,114.032486 
	C54.779781,109.531303 52.886257,107.929276 48.628201,108.447624 
	C47.808636,108.547386 46.957005,108.543724 46.136398,108.448250 
	C41.747784,107.937668 39.828041,109.432762 40.050697,114.257927 
	C40.426014,122.391411 40.122025,130.554901 40.163338,138.705460 
	C40.216946,149.281647 38.849701,148.004181 49.837524,148.249039 
	C53.503475,148.330734 54.370205,146.753311 54.282509,143.466934 
	C54.113956,137.150436 54.234180,130.826233 54.234627,123.507133 
M60.235943,120.682747 
	C59.815437,122.180077 59.084164,123.666756 59.032360,125.176735 
	C58.873241,129.814743 58.926910,134.462265 58.984177,139.105026 
	C59.107689,149.119034 57.291710,148.058762 68.406654,148.249847 
	C71.770462,148.307663 73.290771,147.288437 73.079124,143.713181 
	C72.844337,139.746964 73.025574,135.756119 73.025581,131.776001 
	C73.025597,119.719391 73.025581,119.719391 60.235943,120.682747 
M25.753023,124.811852 
	C22.388502,124.392860 21.382233,126.100235 21.489134,129.204056 
	C21.632288,133.360397 21.516605,137.525406 21.524387,141.686676 
	C21.536533,148.182495 21.540916,148.182480 28.140020,148.188599 
	C35.643074,148.195557 35.643024,148.195557 35.646076,140.508102 
	C35.646938,138.344238 35.644596,136.180359 35.649872,134.016510 
	C35.676243,123.202789 36.046703,124.954643 25.753023,124.811852 
M116.140839,26.444832 
	C114.687714,27.426394 113.234589,28.407955 111.781464,29.389519 
	C112.032013,29.886013 112.282570,30.382509 112.533119,30.879004 
	C111.131042,31.035912 109.728966,31.192820 108.220406,31.361645 
	C108.220406,32.902081 108.220406,34.158054 108.220406,35.662136 
	C109.791374,35.844952 111.192276,36.007980 112.580971,36.169590 
	C112.787109,37.742260 112.952065,39.000782 113.364578,42.148003 
	C115.783440,39.865692 117.252533,38.479534 118.796295,37.022926 
	C120.133942,35.584972 121.512047,34.103523 123.727699,31.721720 
	C120.539238,31.198067 119.161499,30.971794 118.032738,30.786415 
	C117.592628,29.205606 117.248093,27.968082 116.140839,26.444832 
M13.993546,73.568329 
	C14.285076,74.985420 14.576607,76.402512 14.865101,77.804840 
	C16.318350,77.804840 17.592457,77.804840 18.853277,77.804840 
	C19.107782,76.198372 19.329416,74.799377 19.546412,73.429672 
	C21.103289,73.239960 22.369982,73.085602 23.513964,72.946198 
	C25.413147,68.372467 21.889936,68.882187 19.339939,68.588654 
	C19.187872,66.920929 19.060772,65.527023 18.933672,64.133118 
	C18.470394,63.822670 18.007118,63.512218 17.543840,63.201771 
	C16.130495,64.681328 14.717149,66.160881 13.303803,67.640434 
	C13.558398,67.920715 13.812992,68.200989 14.067587,68.481270 
	C12.693098,68.718483 11.318609,68.955696 10.132007,69.160484 
	C9.276821,72.285843 10.217459,73.618431 13.993546,73.568329 
z"/>
<path fill="#0D0D0D" opacity="1.000000" stroke="none" 
	d="
M41.262123,78.769882 
	C28.484686,67.613564 23.391794,53.877789 27.439917,37.794598 
	C31.372076,22.172131 41.773521,11.990427 57.702061,8.707911 
	C73.316330,5.490160 86.877861,10.028357 96.860619,22.668617 
	C106.731880,35.167694 108.777962,49.288593 102.077576,63.874458 
	C95.413353,78.381577 83.733780,86.222908 67.627113,87.109100 
	C57.927532,87.642776 49.250500,84.873085 41.262123,78.769882 
M98.693489,35.022781 
	C90.560173,16.412764 71.569878,7.906166 53.577091,14.813140 
	C35.848423,21.618725 26.840673,40.288208 32.587864,58.315445 
	C38.290699,76.203552 58.037220,86.724236 75.504692,81.180962 
	C95.628517,74.794701 105.309738,56.036026 98.693489,35.022781 
z"/>
<path fill="#0D0D0D" opacity="1.000000" stroke="none" 
	d="
M99.330658,75.328918 
	C104.030403,70.880913 108.471298,66.673500 113.338776,62.061947 
	C110.403778,61.372051 106.552711,61.959770 108.296944,57.379513 
	C108.506111,57.291504 108.812645,57.046368 109.114258,57.052284 
	C123.953049,57.343540 122.384201,53.865704 121.809990,70.781136 
	C120.571381,70.781136 119.319763,70.781136 117.781708,70.781136 
	C117.569077,69.291679 117.349930,67.756500 117.028610,65.505661 
	C109.568466,72.555344 102.576675,79.142792 95.607040,85.753578 
	C86.904770,94.007812 78.082611,102.143036 69.600708,110.618355 
	C66.461121,113.755516 64.591248,113.006462 61.924606,110.235199 
	C57.201832,105.327103 52.158871,100.727104 46.614342,95.385933 
	C36.022152,106.460083 25.227276,117.746147 14.033721,129.449036 
	C12.399240,127.756195 11.517684,126.843170 10.282691,125.564079 
	C18.728823,117.171318 26.861465,109.085938 34.999325,101.005798 
	C37.954838,98.071251 41.050999,95.265640 43.846626,92.186600 
	C46.316299,89.466568 48.193043,89.452621 50.753510,92.205627 
	C55.504475,97.313850 60.579258,102.120895 65.777870,107.311623 
	C76.914612,96.693970 87.993217,86.131744 99.330658,75.328918 
z"/>
<path fill="#0C0C0C" opacity="1.000000" stroke="none" 
	d="
M110.456177,94.298843 
	C110.456001,110.093445 110.457115,125.420654 110.454941,140.747864 
	C110.453888,148.205154 110.451111,148.205063 102.763138,148.191162 
	C102.096733,148.189957 101.423668,148.129471 100.765060,148.201065 
	C97.560402,148.549408 96.282974,147.162415 96.297112,143.926498 
	C96.373528,126.433815 96.364197,108.940521 96.304672,91.447708 
	C96.293602,88.194466 97.739479,86.886269 100.878098,87.128922 
	C101.871750,87.205750 102.876366,87.139481 103.875969,87.140762 
	C110.385567,87.149063 110.385567,87.149246 110.456177,94.298843 
M101.043442,101.543701 
	C101.043442,115.453468 101.043442,129.363235 101.043442,143.687607 
	C103.047218,143.401611 104.407043,143.207520 105.637726,143.031860 
	C105.637726,125.791458 105.637726,109.047836 105.637726,92.007683 
	C103.999802,92.090874 102.622330,92.160835 101.043427,92.241035 
	C101.043427,95.271599 101.043427,97.915588 101.043442,101.543701 
z"/>
<path fill="#090909" opacity="1.000000" stroke="none" 
	d="
M91.839706,137.923553 
	C91.839531,138.578522 91.839516,138.744904 91.839500,138.911270 
	C91.838669,148.449051 89.925362,150.070526 80.453270,148.023911 
	C79.375168,147.790955 77.911407,145.887131 77.893173,144.737976 
	C77.705765,132.928665 77.690613,121.113426 77.925087,109.305756 
	C77.947426,108.180649 79.980553,107.090042 81.098991,106.002769 
	C81.184975,105.919197 81.421761,105.999039 81.587448,105.987953 
	C91.841354,105.302025 91.841446,105.301872 91.841095,115.473984 
	C91.840843,122.794304 91.840286,130.114624 91.839706,137.923553 
M82.262520,118.593842 
	C82.262238,125.549721 82.421204,132.510742 82.196518,139.459381 
	C82.078842,143.098770 83.263351,144.266464 86.804779,143.167511 
	C86.804779,132.340424 86.804779,121.647026 86.804779,110.644577 
	C85.141380,110.880127 83.770264,111.074280 82.262238,111.287827 
	C82.262238,113.674553 82.262238,115.648804 82.262520,118.593842 
z"/>
<path fill="#0B0B0B" opacity="1.000000" stroke="none" 
	d="
M54.234627,124.006180 
	C54.234180,130.826233 54.113956,137.150436 54.282509,143.466934 
	C54.370205,146.753311 53.503475,148.330734 49.837524,148.249039 
	C38.849701,148.004181 40.216946,149.281647 40.163338,138.705460 
	C40.122025,130.554901 40.426014,122.391411 40.050697,114.257927 
	C39.828041,109.432762 41.747784,107.937668 46.136398,108.448250 
	C46.957005,108.543724 47.808636,108.547386 48.628201,108.447624 
	C52.886257,107.929276 54.779781,109.531303 54.298836,114.032486 
	C53.964954,117.157318 54.234615,120.346626 54.234627,124.006180 
M49.729366,122.556717 
	C49.729366,119.447762 49.729366,116.338799 49.729366,112.898979 
	C47.776146,113.059189 46.407204,113.171471 45.264816,113.265175 
	C45.264816,123.601532 45.264816,133.492310 45.264816,143.240433 
	C49.063690,144.300247 49.913727,142.713196 49.787197,139.478790 
	C49.579647,134.173111 49.730293,128.853409 49.729366,122.556717 
z"/>
<path fill="#101010" opacity="1.000000" stroke="none" 
	d="
M60.640461,120.480637 
	C73.025581,119.719391 73.025597,119.719391 73.025581,131.776001 
	C73.025574,135.756119 72.844337,139.746964 73.079124,143.713181 
	C73.290771,147.288437 71.770462,148.307663 68.406654,148.249847 
	C57.291710,148.058762 59.107689,149.119034 58.984177,139.105026 
	C58.926910,134.462265 58.873241,129.814743 59.032360,125.176735 
	C59.084164,123.666756 59.815437,122.180077 60.640461,120.480637 
M68.210365,138.489288 
	C68.210365,134.079407 68.210365,129.669540 68.210365,125.146332 
	C66.541580,125.146332 65.330208,125.146332 64.023682,125.146332 
	C64.023682,131.269104 64.023682,137.130493 64.023682,142.982559 
	C67.788681,144.316727 68.572113,142.546173 68.210365,138.489288 
z"/>
<path fill="#0B0B0B" opacity="1.000000" stroke="none" 
	d="
M26.210541,124.811646 
	C36.046703,124.954643 35.676243,123.202789 35.649872,134.016510 
	C35.644596,136.180359 35.646938,138.344238 35.646076,140.508102 
	C35.643024,148.195557 35.643074,148.195557 28.140020,148.188599 
	C21.540916,148.182480 21.536533,148.182495 21.524387,141.686676 
	C21.516605,137.525406 21.632288,133.360397 21.489134,129.204056 
	C21.382233,126.100235 22.388502,124.392860 26.210541,124.811646 
M29.398561,129.474045 
	C28.297842,130.426086 26.506287,131.219727 26.243898,132.364014 
	C25.737583,134.572052 26.072166,136.978424 26.102951,139.301956 
	C26.119854,140.577789 26.228115,141.852402 26.314899,143.502426 
	C28.039951,143.405060 29.415417,143.327423 31.313538,143.220291 
	C30.933710,138.403839 30.588383,134.024887 29.398561,129.474045 
z"/>
<path fill="#1D1D1D" opacity="1.000000" stroke="none" 
	d="
M116.522194,26.587696 
	C117.248093,27.968082 117.592628,29.205606 118.032738,30.786415 
	C119.161499,30.971794 120.539238,31.198067 123.727699,31.721720 
	C121.512047,34.103523 120.133942,35.584972 118.796295,37.022926 
	C117.252533,38.479534 115.783440,39.865692 113.364578,42.148003 
	C112.952065,39.000782 112.787109,37.742260 112.580971,36.169590 
	C111.192276,36.007980 109.791374,35.844952 108.220406,35.662136 
	C108.220406,34.158054 108.220406,32.902081 108.220406,31.361645 
	C109.728966,31.192820 111.131042,31.035912 112.533119,30.879004 
	C112.282570,30.382509 112.032013,29.886013 111.781464,29.389519 
	C113.234589,28.407955 114.687714,27.426394 116.522194,26.587696 
z"/>
<path fill="#0D0D0D" opacity="1.000000" stroke="none" 
	d="
M13.582561,73.398758 
	C10.217459,73.618431 9.276821,72.285843 10.132007,69.160484 
	C11.318609,68.955696 12.693098,68.718483 14.067587,68.481270 
	C13.812992,68.200989 13.558398,67.920715 13.303803,67.640434 
	C14.717149,66.160881 16.130495,64.681328 17.543840,63.201771 
	C18.007118,63.512218 18.470394,63.822670 18.933672,64.133118 
	C19.060772,65.527023 19.187872,66.920929 19.339939,68.588654 
	C21.889936,68.882187 25.413147,68.372467 23.513964,72.946198 
	C22.369982,73.085602 21.103289,73.239960 19.546412,73.429672 
	C19.329416,74.799377 19.107782,76.198372 18.853277,77.804840 
	C17.592457,77.804840 16.318350,77.804840 14.865101,77.804840 
	C14.576607,76.402512 14.285076,74.985420 13.582561,73.398758 
z"/>
<path fill="#F2F2F2" opacity="1.000000" stroke="none" 
	d="
M98.815186,35.400360 
	C105.309738,56.036026 95.628517,74.794701 75.504692,81.180962 
	C58.037220,86.724236 38.290699,76.203552 32.587864,58.315445 
	C26.840673,40.288208 35.848423,21.618725 53.577091,14.813140 
	C71.569878,7.906166 90.560173,16.412764 98.815186,35.400360 
M40.068565,31.723972 
	C33.592369,42.878204 33.923946,54.016121 40.981201,64.621574 
	C47.638451,74.625900 57.514305,79.049698 69.345909,77.639915 
	C83.783279,75.919632 94.731819,64.755646 96.062401,51.449089 
	C97.559952,36.472759 89.733650,24.069118 75.429230,18.748295 
	C63.171974,14.188959 48.788422,19.268559 40.068565,31.723972 
z"/>
<path fill="#EEEEEE" opacity="1.000000" stroke="none" 
	d="
M101.043434,101.051636 
	C101.043427,97.915588 101.043427,95.271599 101.043427,92.241035 
	C102.622330,92.160835 103.999802,92.090874 105.637726,92.007683 
	C105.637726,109.047836 105.637726,125.791458 105.637726,143.031860 
	C104.407043,143.207520 103.047218,143.401611 101.043442,143.687607 
	C101.043442,129.363235 101.043442,115.453468 101.043434,101.051636 
z"/>
<path fill="#E9E9E9" opacity="1.000000" stroke="none" 
	d="
M82.262375,118.108444 
	C82.262238,115.648804 82.262238,113.674553 82.262238,111.287827 
	C83.770264,111.074280 85.141380,110.880127 86.804779,110.644577 
	C86.804779,121.647026 86.804779,132.340424 86.804779,143.167511 
	C83.263351,144.266464 82.078842,143.098770 82.196518,139.459381 
	C82.421204,132.510742 82.262238,125.549721 82.262375,118.108444 
z"/>
<path fill="#E9E9E9" opacity="1.000000" stroke="none" 
	d="
M49.729626,123.048172 
	C49.730293,128.853409 49.579647,134.173111 49.787197,139.478790 
	C49.913727,142.713196 49.063690,144.300247 45.264816,143.240433 
	C45.264816,133.492310 45.264816,123.601532 45.264816,113.265175 
	C46.407204,113.171471 47.776146,113.059189 49.729366,112.898979 
	C49.729366,116.338799 49.729366,119.447762 49.729626,123.048172 
z"/>
<path fill="#FFFFFF" opacity="1.000000" stroke="none" 
	d="
M68.210327,138.986649 
	C68.572113,142.546173 67.788681,144.316727 64.023682,142.982559 
	C64.023682,137.130493 64.023682,131.269104 64.023682,125.146332 
	C65.330208,125.146332 66.541580,125.146332 68.210365,125.146332 
	C68.210365,129.669540 68.210365,134.079407 68.210327,138.986649 
z"/>
<path fill="#E5E5E5" opacity="1.000000" stroke="none" 
	d="
M29.820808,129.559998 
	C30.588383,134.024887 30.933710,138.403839 31.313538,143.220291 
	C29.415417,143.327423 28.039951,143.405060 26.314899,143.502426 
	C26.228115,141.852402 26.119854,140.577789 26.102951,139.301956 
	C26.072166,136.978424 25.737583,134.572052 26.243898,132.364014 
	C26.506287,131.219727 28.297842,130.426086 29.820808,129.559998 
z"/>
<path fill="#0D0D0D" opacity="1.000000" stroke="none" 
	d="
M40.264179,31.410919 
	C48.788422,19.268559 63.171974,14.188959 75.429230,18.748295 
	C89.733650,24.069118 97.559952,36.472759 96.062401,51.449089 
	C94.731819,64.755646 83.783279,75.919632 69.345909,77.639915 
	C57.514305,79.049698 47.638451,74.625900 40.981201,64.621574 
	C33.923946,54.016121 33.592369,42.878204 40.264179,31.410919 
M47.731716,29.226135 
	C46.667450,30.502468 45.477623,31.694847 44.559063,33.068604 
	C38.044327,42.811779 38.910358,55.761398 46.602520,64.527046 
	C54.041840,73.004562 66.864677,75.613327 77.159737,70.743805 
	C87.457092,65.873199 93.161987,54.589176 91.168350,43.011208 
	C87.566734,22.094973 62.597656,15.318207 47.731716,29.226135 
z"/>
<path fill="#F5F5F5" opacity="1.000000" stroke="none" 
	d="
M47.991989,28.976526 
	C62.597656,15.318207 87.566734,22.094973 91.168350,43.011208 
	C93.161987,54.589176 87.457092,65.873199 77.159737,70.743805 
	C66.864677,75.613327 54.041840,73.004562 46.602520,64.527046 
	C38.910358,55.761398 38.044327,42.811779 44.559063,33.068604 
	C45.477623,31.694847 46.667450,30.502468 47.991989,28.976526 
M68.174103,67.553680 
	C68.733742,67.199257 69.256531,66.757530 69.858505,66.503403 
	C80.155472,62.156441 84.205116,54.762981 82.530449,43.469975 
	C81.878952,39.076683 81.330238,36.066299 77.188034,33.499897 
	C63.031673,24.728975 69.056557,24.943085 55.142490,33.327560 
	C50.876892,35.897964 49.472927,38.783283 49.573341,43.681213 
	C49.890663,59.159248 49.658394,59.199703 63.166393,67.136665 
	C64.386017,67.853287 66.111916,67.708267 68.174103,67.553680 
z"/>
<path fill="#090909" opacity="1.000000" stroke="none" 
	d="
M67.888397,67.758537 
	C66.111916,67.708267 64.386017,67.853287 63.166393,67.136665 
	C49.658394,59.199703 49.890663,59.159248 49.573341,43.681213 
	C49.472927,38.783283 50.876892,35.897964 55.142490,33.327560 
	C69.056557,24.943085 63.031673,24.728975 77.188034,33.499897 
	C81.330238,36.066299 81.878952,39.076683 82.530449,43.469975 
	C84.205116,54.762981 80.155472,62.156441 69.858505,66.503403 
	C69.256531,66.757530 68.733742,67.199257 67.888397,67.758537 
M77.778946,48.406582 
	C78.808319,42.188702 77.036102,37.600838 70.832397,34.912483 
	C67.938110,33.658253 65.753380,30.739323 62.316086,34.103279 
	C59.995968,36.373890 55.494495,37.573235 54.772045,40.064651 
	C53.483356,44.508770 53.676201,49.688713 54.550816,54.314949 
	C54.943439,56.391693 58.377823,58.011826 60.610939,59.585083 
	C62.432331,60.868275 64.629913,62.836269 66.468735,62.645947 
	C71.845245,62.089462 77.779015,54.570400 77.778946,48.406582 
z"/>
<path fill="#F8F8F8" opacity="1.000000" stroke="none" 
	d="
M77.779121,48.862137 
	C77.779015,54.570400 71.845245,62.089462 66.468735,62.645947 
	C64.629913,62.836269 62.432331,60.868275 60.610939,59.585083 
	C58.377823,58.011826 54.943439,56.391693 54.550816,54.314949 
	C53.676201,49.688713 53.483356,44.508770 54.772045,40.064651 
	C55.494495,37.573235 59.995968,36.373890 62.316086,34.103279 
	C65.753380,30.739323 67.938110,33.658253 70.832397,34.912483 
	C77.036102,37.600838 78.808319,42.188702 77.779121,48.862137 
z"/>
</svg>